<mxfile host="app.diagrams.net" modified="2022-01-20T23:31:54.422Z" agent="5.0 (Windows NT 10.0; Win64; x64) AppleWebKit/537.36 (KHTML, like Gecko) Chrome/97.0.4692.71 Safari/537.36" etag="HcBm-orruOL1vc0xl4UV" version="16.4.3" type="github">
  <diagram id="C5RBs43oDa-KdzZeNtuy" name="Page-1">
    <mxGraphModel dx="1550" dy="888" grid="1" gridSize="10" guides="1" tooltips="1" connect="1" arrows="1" fold="1" page="1" pageScale="1" pageWidth="827" pageHeight="1169" math="0" shadow="0">
      <root>
        <mxCell id="WIyWlLk6GJQsqaUBKTNV-0" />
        <mxCell id="WIyWlLk6GJQsqaUBKTNV-1" parent="WIyWlLk6GJQsqaUBKTNV-0" />
        <mxCell id="DJdOlvCuJA3KOowB_GKj-5" value="Tableau" style="swimlane;fontStyle=1;align=center;verticalAlign=top;childLayout=stackLayout;horizontal=1;startSize=26;horizontalStack=0;resizeParent=1;resizeParentMax=0;resizeLast=0;collapsible=1;marginBottom=0;" parent="WIyWlLk6GJQsqaUBKTNV-1" vertex="1">
          <mxGeometry x="120" y="230" width="160" height="140" as="geometry">
            <mxRectangle x="120" y="250" width="80" height="26" as="alternateBounds" />
          </mxGeometry>
        </mxCell>
        <mxCell id="DJdOlvCuJA3KOowB_GKj-6" value="- colonnes : int&#xa;&#xa;- lignes : int" style="text;strokeColor=none;fillColor=none;align=left;verticalAlign=top;spacingLeft=4;spacingRight=4;overflow=hidden;rotatable=0;points=[[0,0.5],[1,0.5]];portConstraint=eastwest;" parent="DJdOlvCuJA3KOowB_GKj-5" vertex="1">
          <mxGeometry y="26" width="160" height="44" as="geometry" />
        </mxCell>
        <mxCell id="DJdOlvCuJA3KOowB_GKj-7" value="" style="line;strokeWidth=1;fillColor=none;align=left;verticalAlign=middle;spacingTop=-1;spacingLeft=3;spacingRight=3;rotatable=0;labelPosition=right;points=[];portConstraint=eastwest;" parent="DJdOlvCuJA3KOowB_GKj-5" vertex="1">
          <mxGeometry y="70" width="160" height="10" as="geometry" />
        </mxCell>
        <mxCell id="DJdOlvCuJA3KOowB_GKj-52" value="+ enleverBateau(b.Bateau)" style="text;html=1;align=center;verticalAlign=middle;resizable=0;points=[];autosize=1;strokeColor=none;fillColor=none;" parent="DJdOlvCuJA3KOowB_GKj-5" vertex="1">
          <mxGeometry y="80" width="160" height="20" as="geometry" />
        </mxCell>
        <mxCell id="DJdOlvCuJA3KOowB_GKj-51" value="+ coup(px : int, py : int) : int" style="text;html=1;align=center;verticalAlign=middle;resizable=0;points=[];autosize=1;strokeColor=none;fillColor=none;" parent="DJdOlvCuJA3KOowB_GKj-5" vertex="1">
          <mxGeometry y="100" width="160" height="20" as="geometry" />
        </mxCell>
        <mxCell id="DJdOlvCuJA3KOowB_GKj-49" value="+ ajouterBateau(b.Bateau)" style="text;html=1;align=center;verticalAlign=middle;resizable=0;points=[];autosize=1;strokeColor=none;fillColor=none;" parent="DJdOlvCuJA3KOowB_GKj-5" vertex="1">
          <mxGeometry y="120" width="160" height="20" as="geometry" />
        </mxCell>
        <mxCell id="DJdOlvCuJA3KOowB_GKj-38" style="edgeStyle=orthogonalEdgeStyle;rounded=0;orthogonalLoop=1;jettySize=auto;html=1;exitX=0.25;exitY=0;exitDx=0;exitDy=0;" parent="WIyWlLk6GJQsqaUBKTNV-1" source="DJdOlvCuJA3KOowB_GKj-13" edge="1">
          <mxGeometry relative="1" as="geometry">
            <mxPoint x="440" y="350" as="targetPoint" />
          </mxGeometry>
        </mxCell>
        <mxCell id="DJdOlvCuJA3KOowB_GKj-13" value="SousMarin" style="swimlane;fontStyle=1;align=center;verticalAlign=top;childLayout=stackLayout;horizontal=1;startSize=26;horizontalStack=0;resizeParent=1;resizeParentMax=0;resizeLast=0;collapsible=1;marginBottom=0;" parent="WIyWlLk6GJQsqaUBKTNV-1" vertex="1">
          <mxGeometry x="580" y="460" width="160" height="100" as="geometry" />
        </mxCell>
        <mxCell id="DJdOlvCuJA3KOowB_GKj-14" value="- enPlonge : boolean" style="text;strokeColor=none;fillColor=none;align=left;verticalAlign=top;spacingLeft=4;spacingRight=4;overflow=hidden;rotatable=0;points=[[0,0.5],[1,0.5]];portConstraint=eastwest;" parent="DJdOlvCuJA3KOowB_GKj-13" vertex="1">
          <mxGeometry y="26" width="160" height="26" as="geometry" />
        </mxCell>
        <mxCell id="DJdOlvCuJA3KOowB_GKj-15" value="" style="line;strokeWidth=1;fillColor=none;align=left;verticalAlign=middle;spacingTop=-1;spacingLeft=3;spacingRight=3;rotatable=0;labelPosition=right;points=[];portConstraint=eastwest;" parent="DJdOlvCuJA3KOowB_GKj-13" vertex="1">
          <mxGeometry y="52" width="160" height="8" as="geometry" />
        </mxCell>
        <mxCell id="DJdOlvCuJA3KOowB_GKj-16" value="+ estTouche(px : int, py : int) : int&#xa;+ avance(dx : int, dy : int)" style="text;strokeColor=none;fillColor=none;align=left;verticalAlign=top;spacingLeft=4;spacingRight=4;overflow=hidden;rotatable=0;points=[[0,0.5],[1,0.5]];portConstraint=eastwest;" parent="DJdOlvCuJA3KOowB_GKj-13" vertex="1">
          <mxGeometry y="60" width="160" height="40" as="geometry" />
        </mxCell>
        <mxCell id="DJdOlvCuJA3KOowB_GKj-39" style="edgeStyle=orthogonalEdgeStyle;rounded=0;orthogonalLoop=1;jettySize=auto;html=1;exitX=0.5;exitY=0;exitDx=0;exitDy=0;" parent="WIyWlLk6GJQsqaUBKTNV-1" source="DJdOlvCuJA3KOowB_GKj-17" edge="1">
          <mxGeometry relative="1" as="geometry">
            <mxPoint x="440" y="350" as="targetPoint" />
          </mxGeometry>
        </mxCell>
        <mxCell id="DJdOlvCuJA3KOowB_GKj-17" value="Escorteur" style="swimlane;fontStyle=1;align=center;verticalAlign=top;childLayout=stackLayout;horizontal=1;startSize=26;horizontalStack=0;resizeParent=1;resizeParentMax=0;resizeLast=0;collapsible=1;marginBottom=0;" parent="WIyWlLk6GJQsqaUBKTNV-1" vertex="1">
          <mxGeometry x="360" y="460" width="160" height="34" as="geometry" />
        </mxCell>
        <mxCell id="DJdOlvCuJA3KOowB_GKj-19" value="" style="line;strokeWidth=1;fillColor=none;align=left;verticalAlign=middle;spacingTop=-1;spacingLeft=3;spacingRight=3;rotatable=0;labelPosition=right;points=[];portConstraint=eastwest;" parent="DJdOlvCuJA3KOowB_GKj-17" vertex="1">
          <mxGeometry y="26" width="160" height="8" as="geometry" />
        </mxCell>
        <mxCell id="DJdOlvCuJA3KOowB_GKj-37" style="edgeStyle=orthogonalEdgeStyle;rounded=0;orthogonalLoop=1;jettySize=auto;html=1;exitX=0.75;exitY=0;exitDx=0;exitDy=0;" parent="WIyWlLk6GJQsqaUBKTNV-1" source="DJdOlvCuJA3KOowB_GKj-21" edge="1">
          <mxGeometry relative="1" as="geometry">
            <mxPoint x="440" y="350" as="targetPoint" />
          </mxGeometry>
        </mxCell>
        <mxCell id="DJdOlvCuJA3KOowB_GKj-21" value="Croiseur" style="swimlane;fontStyle=1;align=center;verticalAlign=top;childLayout=stackLayout;horizontal=1;startSize=26;horizontalStack=0;resizeParent=1;resizeParentMax=0;resizeLast=0;collapsible=1;marginBottom=0;" parent="WIyWlLk6GJQsqaUBKTNV-1" vertex="1">
          <mxGeometry x="140" y="460" width="160" height="34" as="geometry" />
        </mxCell>
        <mxCell id="DJdOlvCuJA3KOowB_GKj-23" value="" style="line;strokeWidth=1;fillColor=none;align=left;verticalAlign=middle;spacingTop=-1;spacingLeft=3;spacingRight=3;rotatable=0;labelPosition=right;points=[];portConstraint=eastwest;" parent="DJdOlvCuJA3KOowB_GKj-21" vertex="1">
          <mxGeometry y="26" width="160" height="8" as="geometry" />
        </mxCell>
        <mxCell id="DJdOlvCuJA3KOowB_GKj-28" value="" style="endArrow=diamondThin;endFill=0;endSize=24;html=1;rounded=0;exitX=0;exitY=0.5;exitDx=0;exitDy=0;" parent="WIyWlLk6GJQsqaUBKTNV-1" source="DJdOlvCuJA3KOowB_GKj-54" edge="1">
          <mxGeometry width="160" relative="1" as="geometry">
            <mxPoint x="360" y="286.5" as="sourcePoint" />
            <mxPoint x="280" y="274" as="targetPoint" />
          </mxGeometry>
        </mxCell>
        <mxCell id="DJdOlvCuJA3KOowB_GKj-29" value="" style="endArrow=diamondThin;endFill=0;endSize=24;html=1;rounded=0;entryX=-0.007;entryY=0.932;entryDx=0;entryDy=0;entryPerimeter=0;exitX=1.006;exitY=0.914;exitDx=0;exitDy=0;exitPerimeter=0;" parent="WIyWlLk6GJQsqaUBKTNV-1" edge="1" target="DJdOlvCuJA3KOowB_GKj-60" source="DJdOlvCuJA3KOowB_GKj-54">
          <mxGeometry width="160" relative="1" as="geometry">
            <mxPoint x="520" y="310" as="sourcePoint" />
            <mxPoint x="578.0799999999999" y="309.99800000000005" as="targetPoint" />
            <Array as="points" />
          </mxGeometry>
        </mxCell>
        <mxCell id="DJdOlvCuJA3KOowB_GKj-53" value="Bateau" style="swimlane;fontStyle=1;align=center;verticalAlign=top;childLayout=stackLayout;horizontal=1;startSize=26;horizontalStack=0;resizeParent=1;resizeParentMax=0;resizeLast=0;collapsible=1;marginBottom=0;" parent="WIyWlLk6GJQsqaUBKTNV-1" vertex="1">
          <mxGeometry x="360" y="226" width="165" height="120" as="geometry">
            <mxRectangle x="120" y="250" width="80" height="26" as="alternateBounds" />
          </mxGeometry>
        </mxCell>
        <mxCell id="DJdOlvCuJA3KOowB_GKj-54" value="- horizontal : boolean" style="text;strokeColor=none;fillColor=none;align=left;verticalAlign=top;spacingLeft=4;spacingRight=4;overflow=hidden;rotatable=0;points=[[0,0.5],[1,0.5]];portConstraint=eastwest;" parent="DJdOlvCuJA3KOowB_GKj-53" vertex="1">
          <mxGeometry y="26" width="165" height="44" as="geometry" />
        </mxCell>
        <mxCell id="DJdOlvCuJA3KOowB_GKj-55" value="" style="line;strokeWidth=1;fillColor=none;align=left;verticalAlign=middle;spacingTop=-1;spacingLeft=3;spacingRight=3;rotatable=0;labelPosition=right;points=[];portConstraint=eastwest;" parent="DJdOlvCuJA3KOowB_GKj-53" vertex="1">
          <mxGeometry y="70" width="165" height="10" as="geometry" />
        </mxCell>
        <mxCell id="DJdOlvCuJA3KOowB_GKj-56" value="+ avancer(dx : int, dy : int)" style="text;html=1;align=center;verticalAlign=middle;resizable=0;points=[];autosize=1;strokeColor=none;fillColor=none;" parent="DJdOlvCuJA3KOowB_GKj-53" vertex="1">
          <mxGeometry y="80" width="165" height="20" as="geometry" />
        </mxCell>
        <mxCell id="DJdOlvCuJA3KOowB_GKj-57" value="+ estTouche(px : int, py : int)" style="text;html=1;align=center;verticalAlign=middle;resizable=0;points=[];autosize=1;strokeColor=none;fillColor=none;" parent="DJdOlvCuJA3KOowB_GKj-53" vertex="1">
          <mxGeometry y="100" width="165" height="20" as="geometry" />
        </mxCell>
        <mxCell id="DJdOlvCuJA3KOowB_GKj-59" value="Element" style="swimlane;fontStyle=1;align=center;verticalAlign=top;childLayout=stackLayout;horizontal=1;startSize=26;horizontalStack=0;resizeParent=1;resizeParentMax=0;resizeLast=0;collapsible=1;marginBottom=0;" parent="WIyWlLk6GJQsqaUBKTNV-1" vertex="1">
          <mxGeometry x="577.5" y="226" width="165" height="120" as="geometry">
            <mxRectangle x="120" y="250" width="80" height="26" as="alternateBounds" />
          </mxGeometry>
        </mxCell>
        <mxCell id="DJdOlvCuJA3KOowB_GKj-60" value="- x : int&#xa;- y : int&#xa;- touche : boolean" style="text;strokeColor=none;fillColor=none;align=left;verticalAlign=top;spacingLeft=4;spacingRight=4;overflow=hidden;rotatable=0;points=[[0,0.5],[1,0.5]];portConstraint=eastwest;" parent="DJdOlvCuJA3KOowB_GKj-59" vertex="1">
          <mxGeometry y="26" width="165" height="44" as="geometry" />
        </mxCell>
        <mxCell id="DJdOlvCuJA3KOowB_GKj-61" value="" style="line;strokeWidth=1;fillColor=none;align=left;verticalAlign=middle;spacingTop=-1;spacingLeft=3;spacingRight=3;rotatable=0;labelPosition=right;points=[];portConstraint=eastwest;" parent="DJdOlvCuJA3KOowB_GKj-59" vertex="1">
          <mxGeometry y="70" width="165" height="10" as="geometry" />
        </mxCell>
        <mxCell id="DJdOlvCuJA3KOowB_GKj-62" value="+ avancer(dx : int, dy : int)" style="text;html=1;align=center;verticalAlign=middle;resizable=0;points=[];autosize=1;strokeColor=none;fillColor=none;" parent="DJdOlvCuJA3KOowB_GKj-59" vertex="1">
          <mxGeometry y="80" width="165" height="20" as="geometry" />
        </mxCell>
        <mxCell id="DJdOlvCuJA3KOowB_GKj-63" value="+ estTouche(px : int, py : int)" style="text;html=1;align=center;verticalAlign=middle;resizable=0;points=[];autosize=1;strokeColor=none;fillColor=none;" parent="DJdOlvCuJA3KOowB_GKj-59" vertex="1">
          <mxGeometry y="100" width="165" height="20" as="geometry" />
        </mxCell>
        <mxCell id="DJdOlvCuJA3KOowB_GKj-65" value="&lt;font style=&quot;font-size: 24px&quot;&gt;BattleShip Game&lt;/font&gt;" style="text;html=1;align=center;verticalAlign=middle;resizable=0;points=[];autosize=1;strokeColor=none;fillColor=none;fontSize=12;fontFamily=Helvetica;fontColor=default;" parent="WIyWlLk6GJQsqaUBKTNV-1" vertex="1">
          <mxGeometry x="340" y="100" width="200" height="20" as="geometry" />
        </mxCell>
      </root>
    </mxGraphModel>
  </diagram>
</mxfile>
